<svg width="64" height="64" viewBox="0 0 64 64" fill="none" xmlns="http://www.w3.org/2000/svg">
<rect width="64" height="64" fill="#1E1E1E"/>
<path d="M41.155 10.6667H39.8333C39.3727 10.6667 39 11.0394 39 11.5C39 11.9606 39.3727 12.3334 39.8333 12.3334H41.155L42.5775 13.7559C42.903 14.0814 43.4304 14.0814 43.7559 13.7559C44.0814 13.4304 44.0814 12.903 43.7559 12.5775L42.6784 11.5L43.7559 10.4225C44.0814 10.097 44.0814 9.56963 43.7559 9.24413C43.4304 8.91862 42.903 8.91862 42.5775 9.24413L41.155 10.6667Z" fill="#FFEDED"/>
<rect width="32" height="64" fill="#484848"/>
<path d="M26 19.4893C26 16.8884 28.3512 14.9199 30.9117 15.3771L34.6418 16.0432C37.435 16.542 40 14.3944 40 11.5571C40 9.04027 37.9597 7 35.4429 7H28.3333C21.89 7 16.6667 12.2233 16.6667 18.6667V23.7042C16.6667 29.1565 21.1748 33.529 26.6245 33.3626L33.4631 33.1538C36.0612 33.0745 38.076 35.4028 37.6243 37.9626C37.267 39.9871 35.4651 41.4337 33.4113 41.3449L18.5053 40.7008C13.8686 40.5005 10 44.2055 10 48.8466V52C10 54.7614 12.2386 57 15 57H16.6667C18.5076 57 20 55.5076 20 53.6667C20 51.8257 21.4924 50.3333 23.3333 50.3333H33.3333C40.6971 50.3333 46.6667 44.3638 46.6667 37V34C46.6667 28.2931 42.0403 23.6667 36.3333 23.6667H30.1773C27.8702 23.6667 26 21.7964 26 19.4893Z" fill="#00CE73"/>
<path d="M47 12C47 9.23858 49.2386 7 52 7C54.7614 7 57 9.23858 57 12C57 14.7614 54.7614 17 52 17C49.2386 17 47 14.7614 47 12Z" fill="#FF3131"/>
<g clip-path="url(#clip0_20_78)">
<path d="M26 19.4893C26 16.8884 28.3512 14.9199 30.9117 15.3771L34.6418 16.0432C37.435 16.542 40 14.3944 40 11.5571C40 9.04027 37.9597 7 35.4429 7H28.3333C21.89 7 16.6667 12.2233 16.6667 18.6667V23.7042C16.6667 29.1565 21.1748 33.529 26.6245 33.3626L33.4631 33.1538C36.0612 33.0745 38.076 35.4028 37.6243 37.9626C37.267 39.9871 35.4651 41.4337 33.4113 41.3449L18.5053 40.7008C13.8686 40.5005 10 44.2055 10 48.8466V52C10 54.7614 12.2386 57 15 57H16.6667C18.5076 57 20 55.5076 20 53.6667C20 51.8257 21.4924 50.3333 23.3333 50.3333H33.3333C40.6971 50.3333 46.6667 44.3638 46.6667 37V34C46.6667 28.2931 42.0403 23.6667 36.3333 23.6667H30.1773C27.8702 23.6667 26 21.7964 26 19.4893Z" fill="#2FFEA2"/>
</g>
<defs>
<clipPath id="clip0_20_78">
<rect width="22" height="50" fill="white" transform="translate(10 7)"/>
</clipPath>
</defs>
</svg>
