<svg width="41" height="40" viewBox="0 0 41 40" fill="none" xmlns="http://www.w3.org/2000/svg">
<g clip-path="url(#clip0_25_166)">
<g clip-path="url(#clip1_25_166)">
<path d="M39.4215 17.3981C39.4206 17.3972 39.4197 17.3962 39.4188 17.3953L23.1019 1.0791C22.4064 0.383301 21.4817 0 20.4982 0C19.5146 0 18.5899 0.382996 17.8941 1.0788L1.58581 17.3868C1.58032 17.3923 1.57482 17.3981 1.56933 17.4036C0.141109 18.84 0.14355 21.1707 1.57635 22.6035C2.23095 23.2584 3.09552 23.6377 4.01989 23.6774C4.05743 23.681 4.09527 23.6829 4.13342 23.6829H4.78375V35.6906C4.78375 38.0667 6.71704 40 9.09375 40H15.4774C16.1244 40 16.6493 39.4754 16.6493 38.8281V29.4141C16.6493 28.3298 17.5312 27.4478 18.6155 27.4478H22.3808C23.4651 27.4478 24.347 28.3298 24.347 29.4141V38.8281C24.347 39.4754 24.8716 40 25.5189 40H31.9026C34.2793 40 36.2126 38.0667 36.2126 35.6906V23.6829H36.8156C37.7989 23.6829 38.7236 23.2999 39.4197 22.6041C40.854 21.1688 40.8546 18.8342 39.4215 17.3981Z" fill="white"/>
</g>
</g>
<defs>
<clipPath id="clip0_25_166">
<rect width="40" height="40" fill="white" transform="translate(0.5)"/>
</clipPath>
<clipPath id="clip1_25_166">
<rect width="40" height="40" fill="white" transform="translate(0.5)"/>
</clipPath>
</defs>
</svg>
