<svg width="41" height="40" viewBox="0 0 41 40" fill="none" xmlns="http://www.w3.org/2000/svg">
<g clip-path="url(#clip0_25_147)">
<path d="M35.5241 12.9734C35.1571 12.3866 34.3734 12.2512 33.827 12.6575L30.0241 15.5105C29.548 15.8687 29.4152 16.528 29.7173 17.0418C30.682 18.6841 31.1719 20.4419 31.1719 22.2672C31.1719 28.0831 26.4409 32.9687 20.625 32.9687C14.8091 32.9687 10.0781 28.0831 10.0781 22.2672C10.0781 16.8473 14.1866 12.3703 19.4531 11.7855V15.2359C19.4531 16.2073 20.5677 16.7482 21.3277 16.1732L30.7027 9.14195C31.3281 8.67406 31.3272 7.7346 30.7027 7.26742L21.3277 0.236165C20.5649 -0.341413 19.4531 0.205149 19.4531 1.17343V4.72796C10.3047 5.33335 3.04688 12.9688 3.04688 22.2672C3.04688 31.9604 10.9319 40 20.625 40C30.3181 40 38.2031 31.9604 38.2031 22.2672C38.2031 18.9873 37.2762 15.7738 35.5241 12.9734Z" fill="white"/>
</g>
<defs>
<clipPath id="clip0_25_147">
<rect width="40" height="40" fill="white" transform="translate(0.625)"/>
</clipPath>
</defs>
</svg>
