<svg width="44" height="27" viewBox="0 0 44 27" fill="none" xmlns="http://www.w3.org/2000/svg">
<g opacity="0.64">
<path d="M23.8195 10.0008C23.4313 10.0008 23.1167 10.3155 23.1167 10.7036V16.0814C23.1167 16.4695 23.4313 16.7842 23.8195 16.7842C24.2076 16.7842 24.5222 16.4695 24.5222 16.0814V10.7036C24.5222 10.3155 24.2076 10.0008 23.8195 10.0008Z" fill="#888888" fill-opacity="0.64"/>
<path d="M33.2973 15.3786H31.7547V14.1198H33.1318C33.5199 14.1198 33.8346 13.8052 33.8346 13.417C33.8346 13.0289 33.5199 12.7143 33.1318 12.7143H31.7547V11.4554H33.2973C33.6854 11.4554 34.0001 11.1408 34.0001 10.7526C34.0001 10.3645 33.6854 10.0499 33.2973 10.0499H31.052C30.6638 10.0499 30.3492 10.3645 30.3492 10.7526V16.0814C30.3492 16.4695 30.6638 16.7842 31.052 16.7842H33.2973C33.6854 16.7842 34.0001 16.4695 34.0001 16.0814C34.0001 15.6933 33.6854 15.3786 33.2973 15.3786Z" fill="#888888" fill-opacity="0.64"/>
<path d="M12.1172 11.4603C12.8655 11.2348 13.5651 11.7938 13.5651 11.7938L13.5653 11.7936C13.6183 11.8382 13.6683 11.8856 13.7142 11.9363C13.9748 12.2239 14.4193 12.2458 14.7069 11.9851C14.9946 11.7245 15.0164 11.28 14.7558 10.9924C14.6667 10.8942 14.4264 10.6829 14.426 10.683C14.1902 10.5009 13.0594 9.70858 11.7118 10.1145C10.9578 10.3415 10.4244 10.9363 10.3196 11.6665C10.221 12.3524 10.5184 13.0123 11.0955 13.3885C11.1266 13.4087 11.1591 13.4265 11.193 13.4416C11.2242 13.4554 11.9657 13.7855 12.8006 14.0935C12.979 14.1593 13.5554 14.404 13.4862 14.7916C13.4348 15.0798 13.0806 15.3779 12.5768 15.3779C12.0508 15.3779 11.5449 15.1662 11.2236 14.8116C10.963 14.524 10.5185 14.5021 10.2309 14.7627C9.94324 15.0234 9.92141 15.4678 10.182 15.7555C10.7741 16.4088 11.647 16.7835 12.5768 16.7835C13.725 16.7835 14.6894 16.0497 14.8698 15.0387C15.0059 14.2767 14.6615 13.2818 13.287 12.7748C12.6317 12.5331 12.0211 12.2699 11.8283 12.1856C11.6972 12.0776 11.7018 11.9286 11.7107 11.8662C11.7236 11.7772 11.7888 11.5592 12.1172 11.4603Z" fill="#888888" fill-opacity="0.64"/>
<path d="M21.9688 10.0236C21.5881 9.94777 21.2182 10.195 21.1423 10.5757L20.5428 13.5883L19.5901 10.4961C19.4759 10.1252 19.0825 9.91703 18.7116 10.0314C18.4605 10.1087 18.2845 10.314 18.2321 10.5536L17.2926 13.5889L16.6948 10.5666C16.6195 10.1858 16.2497 9.93835 15.869 10.0135C15.4882 10.0888 15.2406 10.4586 15.3159 10.8393C15.3159 10.8393 16.3636 16.1359 16.3637 16.1364C16.432 16.4817 16.7432 16.7455 17.0899 16.7797C17.4481 16.8151 17.8037 16.5927 17.9352 16.2589C17.9421 16.2416 17.9483 16.2241 17.9537 16.2063L18.9184 13.0898C18.9184 13.0898 19.8787 16.2066 19.8787 16.2069C19.9286 16.3691 20.0318 16.512 20.1668 16.6142C20.575 16.9231 21.1858 16.7755 21.4082 16.3156C21.4359 16.2585 21.4564 16.1979 21.4689 16.1356L22.5208 10.85C22.5966 10.4694 22.3495 10.0993 21.9688 10.0236Z" fill="#888888" fill-opacity="0.64"/>
<path d="M27.4576 10.0001H25.9602C25.7725 10.0001 25.5871 10.0784 25.4564 10.2131C25.3308 10.3424 25.2574 10.5224 25.2574 10.7029V16.0807C25.2574 16.4689 25.572 16.7835 25.9602 16.7835C26.3483 16.7835 26.6629 16.4689 26.6629 16.0807V14.4438C26.9567 14.4423 27.2735 14.441 27.4576 14.441C28.6983 14.441 29.7077 13.4449 29.7077 12.2205C29.7077 10.9962 28.6983 10.0001 27.4576 10.0001ZM27.4576 13.0354C27.2741 13.0354 26.9613 13.0367 26.6695 13.0382C26.6681 12.7356 26.6659 11.722 26.665 11.4057H27.4576C27.9154 11.4057 28.3021 11.7788 28.3021 12.2205C28.3022 12.6623 27.9154 13.0354 27.4576 13.0354Z" fill="#888888" fill-opacity="0.64"/>
<g opacity="0.64">
<path d="M43.9488 13.2584L42.1489 11.2585C42.1105 11.2161 42.0569 11.1921 42.0001 11.1921H40.8001C40.7213 11.1921 40.6497 11.2385 40.6173 11.3105C40.5853 11.3829 40.5985 11.4673 40.6513 11.5257L42.3308 13.392L40.6513 15.2579C40.5985 15.3167 40.5849 15.4011 40.6173 15.473C40.6497 15.5454 40.7213 15.5918 40.8001 15.5918H42.0001C42.0569 15.5918 42.1105 15.5674 42.1489 15.5258L43.9488 13.526C44.0172 13.45 44.0172 13.334 43.9488 13.2584Z" fill="#EFEFEF"/>
<path d="M41.3489 13.2584L39.549 11.2585C39.5106 11.2161 39.457 11.1921 39.4002 11.1921H38.2003C38.1215 11.1921 38.0499 11.2385 38.0175 11.3105C37.9855 11.3829 37.9987 11.4673 38.0515 11.5257L39.731 13.392L38.0515 15.2579C37.9987 15.3167 37.9851 15.4011 38.0175 15.473C38.0499 15.5454 38.1215 15.5918 38.2003 15.5918H39.4002C39.457 15.5918 39.5106 15.5674 39.549 15.5258L41.3489 13.526C41.4173 13.45 41.4173 13.334 41.3489 13.2584Z" fill="#EFEFEF" fill-opacity="0.16"/>
</g>
<g opacity="0.64">
<path d="M0.0513029 13.2584L1.85121 11.2585C1.8896 11.2161 1.9432 11.1921 2 11.1921H3.19993C3.27873 11.1921 3.35032 11.2385 3.38272 11.3105C3.41472 11.3829 3.40152 11.4673 3.34872 11.5257L1.66922 13.392L3.34872 15.2579C3.40152 15.3167 3.41512 15.4011 3.38272 15.473C3.35032 15.5454 3.27873 15.5918 3.19993 15.5918H2C1.9432 15.5918 1.8896 15.5674 1.85121 15.5258L0.0513029 13.526C-0.0170934 13.45 -0.0170934 13.334 0.0513029 13.2584Z" fill="#EFEFEF"/>
<path d="M2.65116 13.2584L4.45106 11.2585C4.48946 11.2161 4.54305 11.1921 4.59985 11.1921H5.79979C5.87858 11.1921 5.95018 11.2385 5.98258 11.3105C6.01457 11.3829 6.00138 11.4673 5.94858 11.5257L4.26907 13.392L5.94858 15.2579C6.00138 15.3167 6.01497 15.4011 5.98258 15.473C5.95018 15.5454 5.87858 15.5918 5.79979 15.5918H4.59985C4.54305 15.5918 4.48946 15.5674 4.45106 15.5258L2.65116 13.526C2.58276 13.45 2.58276 13.334 2.65116 13.2584Z" fill="#EFEFEF" fill-opacity="0.16"/>
</g>
<g opacity="0.64">
<path d="M22.1338 0.0513029L24.1337 1.85121C24.1761 1.8896 24.2001 1.9432 24.2001 2V3.19993C24.2001 3.27873 24.1537 3.35032 24.0817 3.38272C24.0093 3.41472 23.9249 3.40152 23.8665 3.34872L22.0002 1.66922L20.1343 3.34872C20.0755 3.40152 19.9911 3.41512 19.9191 3.38272C19.8467 3.35032 19.8003 3.27873 19.8003 3.19993V2C19.8003 1.9432 19.8247 1.8896 19.8663 1.85121L21.8662 0.0513029C21.9422 -0.0170934 22.0582 -0.0170934 22.1338 0.0513029Z" fill="#EFEFEF"/>
<path d="M22.1338 2.65116L24.1337 4.45106C24.1761 4.48946 24.2001 4.54305 24.2001 4.59985V5.79979C24.2001 5.87858 24.1537 5.95018 24.0817 5.98258C24.0093 6.01457 23.9249 6.00138 23.8665 5.94858L22.0002 4.26907L20.1343 5.94858C20.0755 6.00138 19.9911 6.01497 19.9191 5.98258C19.8467 5.95018 19.8003 5.87858 19.8003 5.79979V4.59985C19.8003 4.54305 19.8247 4.48946 19.8663 4.45106L21.8662 2.65116C21.9422 2.58276 22.0582 2.58276 22.1338 2.65116Z" fill="#EFEFEF" fill-opacity="0.16"/>
</g>
<g opacity="0.64">
<path d="M22.1338 26.9487L24.1337 25.1488C24.1761 25.1104 24.2001 25.0568 24.2001 25V23.8001C24.2001 23.7213 24.1537 23.6497 24.0817 23.6173C24.0093 23.5853 23.9249 23.5985 23.8665 23.6513L22.0002 25.3308L20.1343 23.6513C20.0755 23.5985 19.9911 23.5849 19.9191 23.6173C19.8467 23.6497 19.8003 23.7213 19.8003 23.8001V25C19.8003 25.0568 19.8247 25.1104 19.8663 25.1488L21.8662 26.9487C21.9422 27.0171 22.0582 27.0171 22.1338 26.9487Z" fill="#EFEFEF"/>
<path d="M22.1338 24.3488L24.1337 22.5489C24.1761 22.5105 24.2001 22.4569 24.2001 22.4001V21.2002C24.2001 21.1214 24.1537 21.0498 24.0817 21.0174C24.0093 20.9854 23.9249 20.9986 23.8665 21.0514L22.0002 22.7309L20.1343 21.0514C20.0755 20.9986 19.9911 20.985 19.9191 21.0174C19.8467 21.0498 19.8003 21.1214 19.8003 21.2002V22.4001C19.8003 22.4569 19.8247 22.5105 19.8663 22.5489L21.8662 24.3488C21.9422 24.4172 22.0582 24.4172 22.1338 24.3488Z" fill="#EFEFEF" fill-opacity="0.16"/>
</g>
</g>
</svg>
